<svg width="48" height="50" viewBox="0 0 48 50" fill="none" xmlns="http://www.w3.org/2000/svg">
<path d="M0 0H43C45.7614 0 48 2.23858 48 5V45C48 47.7614 45.7614 50 43 50H0V0Z" fill="#4381F5"/>
<path d="M23.5358 34.0716C18.2795 34.0716 14 29.7921 14 24.5358C14 19.2795 18.2795 15 23.5358 15C28.7921 15 33.0716 19.2795 33.0716 24.5358C33.0716 29.7921 28.7921 34.0716 23.5358 34.0716ZM23.5358 16.3955C19.0424 16.3955 15.3955 20.0517 15.3955 24.5358C15.3955 29.02 19.0424 32.6761 23.5358 32.6761C28.0293 32.6761 31.6761 29.02 31.6761 24.5358C31.6761 20.0517 28.0293 16.3955 23.5358 16.3955Z" fill="white"/>
<path d="M32.9306 35C32.6588 35 32.387 34.8999 32.1724 34.6855L29.3112 31.8263C28.8963 31.4117 28.8963 30.7255 29.3112 30.3109C29.726 29.8964 30.4127 29.8964 30.8276 30.3109L33.6888 33.1701C34.1037 33.5847 34.1037 34.2709 33.6888 34.6855C33.4742 34.8999 33.2024 35 32.9306 35Z" fill="white"/>
</svg>
